<svg version="1.2" baseProfile="tiny-ps" xmlns="http://www.w3.org/2000/svg" viewBox="0 0 1500 1000" width="1500" height="1000">
	<title>4853430-ai</title>
	<defs>
		<linearGradient id="grd1" gradientUnits="userSpaceOnUse"  x1="1504" y1="0" x2="1504" y2="1000">
			<stop offset="0" stop-color="#f0fbfb"  />
			<stop offset="1" stop-color="#e2d9d8"  />
		</linearGradient>
		<linearGradient id="grd2" gradientUnits="userSpaceOnUse"  x1="459.104" y1="565.927" x2="1464.477" y2="565.927">
			<stop offset="0" stop-color="#c5d5dd"  />
			<stop offset="1" stop-color="#d3dbd9"  />
		</linearGradient>
		<linearGradient id="grd3" gradientUnits="userSpaceOnUse"  x1="-440.182" y1="822.904" x2="565.191" y2="822.904">
			<stop offset="0" stop-color="#c5d5dd"  />
			<stop offset="1" stop-color="#d3dbd9"  />
		</linearGradient>
		<linearGradient id="grd4" gradientUnits="userSpaceOnUse"  x1="799.724" y1="-541.473" x2="1805.097" y2="-541.473">
			<stop offset="0" stop-color="#c5d5dd"  />
			<stop offset="1" stop-color="#d3dbd9"  />
		</linearGradient>
		<linearGradient id="grd5" gradientUnits="userSpaceOnUse"  x1="0" y1="-3.904" x2="991.64" y2="-3.904">
			<stop offset="0" stop-color="#c5d5dd"  />
			<stop offset="1" stop-color="#d3dbd9"  />
		</linearGradient>
		<linearGradient id="grd6" gradientUnits="userSpaceOnUse"  x1="322.66" y1="712.291" x2="1294.52" y2="712.291">
			<stop offset="0" stop-color="#c5d5dd"  />
			<stop offset="1" stop-color="#d3dbd9"  />
		</linearGradient>
	</defs>
	<style>
		tspan { white-space:pre }
		.shp0 { fill: url(#grd1) } 
		.shp1 { opacity: 0.2;mix-blend-mode: multiply;fill: url(#grd2) } 
		.shp2 { opacity: 0.2;mix-blend-mode: multiply;fill: url(#grd3) } 
		.shp3 { opacity: 0.2;mix-blend-mode: multiply;fill: url(#grd4) } 
		.shp4 { opacity: 0.2;mix-blend-mode: multiply;fill: url(#grd5) } 
		.shp5 { mix-blend-mode: overlay;fill: #f8e6cb } 
		.shp6 { mix-blend-mode: soft-light;fill: url(#grd6) } 
		.shp7 { fill: none;stroke: #d8d8d8;stroke-width: 2 } 
	</style>
	<g id="BACKGROUND">
	</g>
	<g id="OBJECTS">
		<g id="&lt;Clip Group&gt;">
			<path id="&lt;Path&gt;" class="shp0" d="M1500 1000L0 1000L0 0L1500 0L1500 1000Z" />
			<path id="&lt;Path&gt;" class="shp1" d="M1464.48 1172.85L1389.39 1212.5C1337.69 1189.62 1277.62 1194.45 1223.23 1209.86C1168.84 1225.27 1117.78 1250.57 1064.15 1268.45C954.77 1304.91 833.44 1309.26 724.41 1271.78C615.38 1234.3 520.17 1153.35 473.73 1047.83C427.29 942.3 433.32 813.18 496.77 716.92C560.23 620.66 681.77 563.59 795.17 584.41C842.93 593.18 889.03 614.62 937.54 612.62C984.8 610.67 1028.1 586.71 1074.16 576C1147 559.06 1227.11 577.41 1285.63 623.97C1344.15 670.53 1379.99 744.22 1380.99 818.99C1381.61 864.78 1369.96 909.7 1362 954.79C1354.04 999.88 1349.89 1047.35 1364.96 1090.59C1380.03 1133.83 1418.7 1171.63 1464.48 1172.85Z" />
			<path id="&lt;Path&gt;" class="shp2" d="M565.19 1429.83L490.1 1469.48C438.41 1446.6 378.34 1451.42 323.95 1466.84C269.56 1482.25 218.49 1507.55 164.86 1525.43C55.49 1561.89 -65.85 1566.24 -174.88 1528.76C-283.91 1491.28 -379.11 1410.33 -425.55 1304.81C-471.99 1199.28 -465.96 1070.16 -402.51 973.9C-339.06 877.64 -217.52 820.57 -104.12 841.39C-56.36 850.16 -10.26 871.6 38.26 869.6C85.51 867.65 128.81 843.69 174.87 832.98C247.71 816.04 327.82 834.38 386.35 880.94C444.87 927.5 480.71 1001.2 481.71 1075.97C482.32 1121.76 470.68 1166.68 462.71 1211.77C454.75 1256.86 450.61 1304.33 465.68 1347.57C480.75 1390.8 519.42 1428.6 565.19 1429.83Z" />
			<path id="&lt;Path&gt;" class="shp3" d="M1805.1 65.45L1730.01 105.1C1678.31 82.22 1618.24 87.05 1563.85 102.46C1509.46 117.87 1458.4 143.17 1404.77 161.05C1295.39 197.51 1174.06 201.86 1065.03 164.38C956 126.9 860.79 45.95 814.35 -59.57C767.92 -165.1 773.94 -294.22 837.39 -390.48C900.85 -486.74 1022.39 -543.81 1135.79 -522.99C1183.55 -514.22 1229.65 -492.78 1278.16 -494.78C1325.42 -496.73 1368.72 -520.69 1414.78 -531.4C1487.62 -548.34 1567.73 -529.99 1626.25 -483.43C1684.77 -436.87 1720.61 -363.18 1721.61 -288.41C1722.23 -242.62 1710.58 -197.7 1702.62 -152.61C1694.66 -107.52 1690.51 -60.05 1705.58 -16.81C1720.65 26.43 1759.33 64.23 1805.1 65.45Z" />
			<path id="&lt;Path&gt;" class="shp4" d="M991.64 0.01C983.14 50.41 962.72 98.79 931.34 139.19C869.42 218.87 766.76 265.09 666.06 258.59C655.36 257.91 644.58 256.69 633.76 255.23C577.2 247.65 519.56 233.83 468.82 257.45C425.74 277.51 398.2 320.55 359.32 347.85C308.46 383.57 240 389.41 180.84 370.35C121.7 351.29 71.58 309.45 34.96 259.23C22.3 241.87 11.1 223.47 0 205.01L0 0.01L991.64 0.01Z" />
			<path id="&lt;Path&gt;" class="shp5" d="M1218.46 0.01C1205.92 11.67 1191.4 21.11 1175.22 27.35C1146 38.65 1113.06 40.83 1086.54 57.49C1051.6 79.43 1035.36 121.61 1026.56 161.91C1017.78 202.23 1013.78 244.59 993.92 280.75C952.76 355.77 850.42 381.57 769.28 354.37C715.26 336.25 670.14 299.73 633.76 255.23C615.52 232.91 599.48 208.61 585.64 183.61C554.36 127.11 531.42 64.89 488.52 16.63C483.36 10.81 477.76 5.25 471.84 0.01L1218.46 0.01Z" />
			<path id="&lt;Path&gt;" class="shp5" d="M1500 491.61L1500 1000.01L768.36 1000.01C770.82 978.57 775.32 957.37 782.08 936.73C804.9 866.87 854.4 805.69 917.16 768.25C950.32 748.45 987.2 735.27 1025.8 730.97C1076.06 725.35 1132.72 732.13 1171.46 699.63C1194.76 680.07 1206.08 650.21 1220.6 623.47C1261.96 547.39 1339.86 489.15 1426.24 483.03C1451.02 481.27 1476.14 484.37 1500 491.61Z" />
			<path id="&lt;Path&gt;" class="shp6" d="M1294.52 1000.01L322.66 1000.01C325.58 972.61 332.48 945.53 342.5 919.89C365.94 860.05 412.82 803.01 476.44 793.93C503.88 790.01 530.84 795.33 556.94 805.01C594.34 818.87 636.24 807.57 661.9 777.03C680.02 755.49 703.32 738.25 729.5 727.89C777.98 708.67 835.3 713.37 880 740.19C893.26 748.15 905.42 757.89 917.16 768.25C950.56 797.69 980.58 832.13 1022.64 844.93C1066.38 858.21 1114.18 844.87 1159 853.83C1224.7 866.97 1272.98 926.91 1292.06 991.13C1292.94 994.07 1293.76 997.03 1294.52 1000.01Z" />
			<path id="&lt;Path&gt;" class="shp5" d="M458.99 311.61C458.99 349.25 428.47 379.77 390.82 379.77C353.18 379.77 322.66 349.25 322.66 311.61C322.66 273.96 353.18 243.44 390.82 243.44C428.47 243.44 458.99 273.96 458.99 311.61Z" />
			<path id="&lt;Path&gt;" class="shp5" d="M1218.46 518.03C1218.46 530.95 1207.98 541.43 1195.06 541.43C1182.14 541.43 1171.66 530.95 1171.66 518.03C1171.66 505.11 1182.14 494.63 1195.06 494.63C1207.98 494.63 1218.46 505.11 1218.46 518.03Z" />
			<path id="&lt;Path&gt;" class="shp5" d="M206.75 793.05C206.75 799.52 201.51 804.75 195.05 804.75C188.59 804.75 183.35 799.52 183.35 793.05C183.35 786.59 188.59 781.35 195.05 781.35C201.51 781.35 206.75 786.59 206.75 793.05Z" />
			<path id="&lt;Path&gt;" class="shp5" d="M1317.92 427.19C1317.92 433.65 1312.68 438.89 1306.22 438.89C1299.76 438.89 1294.52 433.65 1294.52 427.19C1294.52 420.73 1299.76 415.49 1306.22 415.49C1312.68 415.49 1317.92 420.73 1317.92 427.19Z" />
			<g id="&lt;Group&gt;">
				<path id="&lt;Path&gt;" class="shp7" d="M1067.14 -71.62C1004.83 -78.96 939.57 -52.95 899.37 -4.77C867.66 33.23 852.09 81.92 839.84 129.88C827.59 177.84 817.68 227.09 794.8 270.98C771.91 314.87 733.24 353.68 684.57 362.74C613.7 375.94 546.45 323.24 506.62 263.15C466.8 203.06 442.89 132.61 396.46 77.46C342.93 13.86 260.52 -24.42 177.4 -24.32" />
				<path id="&lt;Path&gt;" class="shp7" d="M1039.3 -71.7C980.88 -78.57 919.71 -54.2 882.03 -9.03C852.3 26.59 837.71 72.23 826.22 117.19C814.74 162.15 805.45 208.32 784 249.46C762.55 290.61 726.29 326.99 680.68 335.48C614.24 347.85 551.19 298.45 513.86 242.12C476.53 185.79 454.11 119.75 410.59 68.05C360.41 8.44 283.16 -27.45 205.24 -27.36" />
				<path id="&lt;Path&gt;" class="shp7" d="M1011.46 -71.78C956.94 -78.19 899.85 -55.44 864.68 -13.3C836.94 19.95 823.33 62.55 812.61 104.5C801.89 146.46 793.22 189.55 773.2 227.94C753.18 266.34 719.35 300.29 676.78 308.22C614.77 319.77 555.94 273.66 521.1 221.09C486.26 168.52 465.34 106.89 424.72 58.64C377.89 3.01 305.8 -30.48 233.08 -30.39" />
				<path id="&lt;Path&gt;" class="shp7" d="M983.61 -71.85C933 -77.81 879.99 -56.69 847.34 -17.56C821.58 13.31 808.94 52.86 798.99 91.81C789.04 130.77 780.99 170.77 762.4 206.42C743.82 242.07 712.4 273.6 672.88 280.96C615.31 291.68 560.68 248.87 528.34 200.06C495.99 151.25 476.57 94.03 438.86 49.24C395.37 -2.42 328.44 -33.51 260.92 -33.43" />
				<path id="&lt;Path&gt;" class="shp7" d="M955.77 -71.93C909.06 -77.43 860.13 -57.93 830 -21.82C806.23 6.68 794.56 43.18 785.37 79.13C776.19 115.08 768.76 152 751.61 184.91C734.45 217.81 705.46 246.9 668.98 253.7C615.85 263.59 565.43 224.08 535.57 179.03C505.72 133.99 487.79 81.18 452.99 39.83C412.86 -7.84 351.08 -36.54 288.77 -36.47" />
			</g>
			<g id="&lt;Group&gt;">
				<path id="&lt;Path&gt;" class="shp7" d="M612.02 1145.07C598.27 1094.87 588.23 1040.17 607.46 991.8C632.65 928.43 702.55 892.95 770.26 884.82C837.97 876.68 906.14 890.12 974.14 895.29C1042.14 900.46 1114.97 895.99 1171.01 857.14C1248.74 803.26 1274.25 698.26 1344.39 634.8C1402.87 581.9 1491.15 564.45 1565.37 591.14" />
				<path id="&lt;Path&gt;" class="shp7" d="M663.52 1145.07C650.51 1097.58 641.01 1045.84 659.21 1000.08C683.04 940.14 749.16 906.57 813.21 898.87C877.26 891.18 941.75 903.9 1006.08 908.79C1070.4 913.68 1139.3 909.44 1192.32 872.69C1265.85 821.72 1289.98 722.39 1356.33 662.37C1411.65 612.32 1495.16 595.82 1565.37 621.06" />
				<path id="&lt;Path&gt;" class="shp7" d="M715.02 1145.07C702.75 1100.3 693.8 1051.5 710.95 1008.36C733.42 951.84 795.77 920.19 856.17 912.93C916.56 905.68 977.37 917.67 1038.02 922.28C1098.67 926.89 1163.63 922.9 1213.62 888.25C1282.95 840.19 1305.71 746.53 1368.27 689.94C1420.43 642.74 1499.17 627.18 1565.37 650.99" />
				<path id="&lt;Path&gt;" class="shp7" d="M766.52 1145.07C755 1103.01 746.59 1057.17 762.7 1016.64C783.81 963.54 842.38 933.81 899.12 926.99C955.85 920.18 1012.98 931.44 1069.96 935.77C1126.94 940.11 1187.96 936.36 1234.92 903.8C1300.06 858.65 1321.43 770.67 1380.2 717.5C1429.21 673.17 1503.18 658.55 1565.37 680.91" />
				<path id="&lt;Path&gt;" class="shp7" d="M818.02 1145.07C807.24 1105.72 799.37 1062.84 814.45 1024.92C834.2 975.24 888.99 947.43 942.07 941.05C995.15 934.68 1048.59 945.21 1101.9 949.27C1155.2 953.32 1212.29 949.81 1256.23 919.36C1317.16 877.12 1337.16 794.8 1392.14 745.07C1437.99 703.59 1507.19 689.91 1565.37 710.84" />
			</g>
			<g id="&lt;Group&gt;">
				<path id="&lt;Path&gt;" class="shp7" d="M-14.86 399.27C-24.9 434.23 -7.02 472.03 18.91 497.55C44.83 523.07 78.02 539.59 108.51 559.43C139 579.27 168.48 604.58 180.02 639.08C200.55 700.46 158.64 762.94 138.66 824.5C108.43 917.65 131.99 1026.24 198.1 1098.48" />
				<path id="&lt;Path&gt;" class="shp7" d="M-38.58 406.49C-48.63 441.45 -30.75 479.25 -4.82 504.77C21.1 530.29 54.29 546.81 84.78 566.65C115.28 586.48 144.76 611.8 156.3 646.3C176.82 707.68 134.91 770.15 114.93 831.72C84.7 924.86 108.26 1033.45 174.38 1105.7" />
				<path id="&lt;Path&gt;" class="shp7" d="M-62.31 413.7C-72.35 448.67 -54.47 486.47 -28.55 511.99C-2.62 537.51 30.56 554.03 61.06 573.87C91.55 593.7 121.03 619.01 132.57 653.51C153.1 714.9 111.19 777.37 91.21 838.94C60.97 932.08 84.53 1040.67 150.65 1112.92" />
				<path id="&lt;Path&gt;" class="shp7" d="M-86.04 420.92C-96.08 455.89 -78.2 493.68 -52.28 519.2C-26.35 544.72 6.83 561.25 37.33 581.08C67.82 600.92 97.3 626.23 108.84 660.73C129.37 722.11 87.46 784.59 67.48 846.15C37.25 939.3 60.81 1047.89 126.92 1120.13" />
			</g>
			<g id="&lt;Group&gt;">
				<path id="&lt;Path&gt;" class="shp7" d="M1151.67 -373.71C1156.74 -337.69 1188.47 -310.46 1222.54 -297.71C1256.62 -284.97 1293.65 -283.4 1329.58 -277.7C1365.51 -272.01 1402.75 -260.91 1427.34 -234.1C1471.09 -186.4 1458.27 -112.27 1465.1 -47.91C1475.44 49.47 1541.2 139.04 1631.01 178.09" />
				<path id="&lt;Path&gt;" class="shp7" d="M1132.94 -357.46C1138.01 -321.43 1169.74 -294.2 1203.81 -281.45C1237.89 -268.71 1274.92 -267.14 1310.85 -261.45C1346.78 -255.75 1384.02 -244.65 1408.61 -217.84C1452.36 -170.14 1439.54 -96.02 1446.38 -31.65C1456.71 65.73 1522.47 155.3 1612.28 194.34" />
				<path id="&lt;Path&gt;" class="shp7" d="M1114.21 -341.2C1119.28 -305.18 1151.01 -277.94 1185.09 -265.2C1219.16 -252.45 1256.2 -250.88 1292.13 -245.19C1328.06 -239.49 1365.29 -228.39 1389.88 -201.58C1433.64 -153.89 1420.81 -79.76 1427.65 -15.39C1437.98 81.99 1503.74 171.56 1593.55 210.6" />
				<path id="&lt;Path&gt;" class="shp7" d="M1095.48 -324.94C1100.56 -288.92 1132.29 -261.68 1166.36 -248.94C1200.43 -236.19 1237.47 -234.62 1273.4 -228.93C1309.33 -223.24 1346.56 -212.13 1371.15 -185.32C1414.91 -137.63 1402.09 -63.5 1408.92 0.86C1419.26 98.25 1485.01 187.82 1574.82 226.86" />
			</g>
		</g>
	</g>
</svg>